<?xml version="1.0" encoding="UTF-8"?>
<svg width="57px" height="90px" viewBox="0 0 57 90" version="1.1" xmlns="http://www.w3.org/2000/svg" xmlns:xlink="http://www.w3.org/1999/xlink">
    <!-- Generator: Sketch 49.2 (51160) - http://www.bohemiancoding.com/sketch -->
    <title>servicios</title>
    <desc>Created with Sketch.</desc>
    <defs></defs>
    <g id="Page-1" stroke="none" stroke-width="1" fill="none" fill-rule="evenodd" stroke-linecap="round" stroke-linejoin="round">
        <g id="Landing-Portal-Copy-6" transform="translate(-800.000000, -1138.000000)" stroke-width="1.7667936">
            <g id="servicios" transform="translate(801.000000, 1139.000000)">
                <path d="M23.4819734,75.0588235 L2.48908918,75.0588235 C1.12061195,75.0588235 0,73.9316471 0,72.556 L0,2.50282353 C0,1.12717647 1.12061195,0 2.48908918,0 L52.3021822,0 C53.6706594,0 54.7912713,1.12717647 54.7912713,2.50282353 L54.7912713,34.9411765" id="Stroke-1" stroke="#6419E9"></path>
                <path d="M9.13187856,10.56 L45.6593928,10.56" id="Stroke-3" stroke="#6419E9"></path>
                <path d="M9.13187856,21.12 L26.0910816,21.12" id="Stroke-5" stroke="#6419E9"></path>
                <path d="M8.87096774,31.68 L25.8301708,31.68" id="Stroke-7" stroke="#6419E9"></path>
                <path d="M8.87096774,42.24 L25.8301708,42.24" id="Stroke-7-Copy" stroke="#6419E9"></path>
                <path d="M42.9050878,64.0588235 C37.904732,64.0588235 33.8553961,60.0392941 33.8553961,55.0815294 C33.8553961,50.1224706 37.904732,46.1029412 42.9050878,46.1029412 L51.9547794,46.1029412" id="Stroke-9" stroke="#5EDAB0"></path>
                <path d="M42.9050878,64.0588235 C47.9015299,64.0588235 51.9547794,68.0783529 51.9547794,73.0361176 C51.9547794,77.9951765 47.9015299,82.0147059 42.9050878,82.0147059 L33.8553961,82.0147059" id="Stroke-11" stroke="#5EDAB0"></path>
                <path d="M42.5806452,40.1176471 L42.5806452,46.1029412" id="Stroke-13" stroke="#5EDAB0"></path>
                <path d="M42.5806452,82.0147059 L42.5806452,88" id="Stroke-15" stroke="#5EDAB0"></path>
            </g>
        </g>
    </g>
</svg>