<?xml version="1.0" encoding="UTF-8"?>
<svg width="100px" height="100px" viewBox="0 0 100 100" version="1.1" xmlns="http://www.w3.org/2000/svg" xmlns:xlink="http://www.w3.org/1999/xlink">
    <!-- Generator: Sketch 49.2 (51160) - http://www.bohemiancoding.com/sketch -->
    <title>Icons/Spei</title>
    <desc>Created with Sketch.</desc>
    <defs></defs>
    <g id="Icons/Spei" stroke="none" stroke-width="1" fill="none" fill-rule="evenodd">
        <g id="Group" transform="translate(8.000000, 15.000000)">
            <circle id="Oval-7-Copy-2" stroke="#F5C400" stroke-width="1.78464" cx="69.5" cy="12.5" r="6.5"></circle>
            <circle id="Oval-3-Copy-2" fill="#BE207A" style="mix-blend-mode: multiply;" transform="translate(16.000000, 56.000000) scale(-1, 1) translate(-16.000000, -56.000000) " cx="16" cy="56" r="8"></circle>
            <path d="M43.5,33 C39.357,33 36,29.6406719 36,25.4985003 C36,21.3563287 39.357,18 43.5,18 L51,18" id="Stroke-1" stroke="#01A87F" stroke-width="1.144" stroke-linecap="round" stroke-linejoin="round"></path>
            <path d="M43.5,33 C47.6445,33 51,36.3593281 51,40.5 C51,44.6406719 47.6445,48 43.5,48 L36,48" id="Stroke-3" stroke="#01A87F" stroke-width="1.144" stroke-linecap="round" stroke-linejoin="round"></path>
            <path d="M44,11 L44,17" id="Stroke-5" stroke="#01A87F" stroke-width="1.144" stroke-linecap="round" stroke-linejoin="round"></path>
            <path d="M45,48 L45,54" id="Stroke-5-Copy" stroke="#01A87F" stroke-width="1.144" stroke-linecap="round" stroke-linejoin="round"></path>
            <polyline id="Stroke-9" stroke="#D81E05" stroke-width="1.716" stroke-linecap="round" stroke-linejoin="round" points="63 48 76.5241333 39 85 54"></polyline>
            <path d="M76,41 C73.9608696,57.3705 60.5608696,70 42.6179783,70 C26.6894565,70 13.2384783,59.9805 9,46.2751" id="Stroke-11" stroke="#D81E05" stroke-width="1.716" stroke-linecap="round" stroke-linejoin="round"></path>
            <polyline id="Stroke-13" stroke="#D81E05" stroke-width="1.716" stroke-linecap="round" stroke-linejoin="round" points="22 23 8.47586667 32 0 17"></polyline>
            <path d="M9,29 C11.0391304,12.6295 24.4391304,0 42.3820217,0 C58.3105435,0 71.7615217,10.0195 76,23.7249" id="Stroke-15" stroke="#D81E05" stroke-width="1.716" stroke-linecap="round" stroke-linejoin="round"></path>
        </g>
    </g>
</svg>