<?xml version="1.0" encoding="UTF-8"?>
<svg width="100px" height="100px" viewBox="0 0 100 100" version="1.1" xmlns="http://www.w3.org/2000/svg" xmlns:xlink="http://www.w3.org/1999/xlink">
    <!-- Generator: Sketch 49.2 (51160) - http://www.bohemiancoding.com/sketch -->
    <title>Icons/touch-ID</title>
    <desc>Created with Sketch.</desc>
    <defs></defs>
    <g id="Icons/touch-ID" stroke="none" stroke-width="1" fill="none" fill-rule="evenodd">
        <g id="Group-3" transform="translate(10.000000, 2.000000)">
            <g id="Fingerprint-ID" transform="translate(0.527675, 0.000000)">
                <g id="Page-1" transform="translate(24.256260, 31.015245)">
                    <g id="Group"></g>
                </g>
                <path d="M55.0179647,40.9007759 C55.6948109,42.317205 56.2776915,44.2219061 56.5566519,45.9609173" id="Stroke-1" stroke="#8230DF" stroke-width="1.92" stroke-linecap="round" stroke-linejoin="round"></path>
                <path d="M32.9554222,32.6372469 C35.1445277,31.5829897 37.6243394,31.0155383 40.2539088,31.0155383 C45.3662264,31.0155383 49.9191548,33.4217081 52.8467714,37.1768579" id="Stroke-3" stroke="#8230DF" stroke-width="1.92" stroke-linecap="round" stroke-linejoin="round"></path>
                <path d="M25.2572879,55.7366236 C25.0253103,52.1676917 24.2559667,50.9785365 24.2559667,47.1222132 C24.2559667,42.0620718 26.2086899,37.8934303 29.3330471,35.0664373" id="Stroke-5" stroke="#8230DF" stroke-width="1.92" stroke-linecap="round" stroke-linejoin="round"></path>
                <path d="M40.6362315,36.4042736 C46.4195223,36.816299 49.9270831,40.6359653 50.9841964,44.800208 C51.953217,48.6022789 52.3232067,49.8823436 52.2512642,54.1888157 C52.2101543,56.7122881 51.8342917,58.9835599 51.4187875,60.581808" id="Stroke-7" stroke="#8230DF" stroke-width="1.92" stroke-linecap="round" stroke-linejoin="round"></path>
                <path d="M29.61744,48.6163552 C29.5983532,48.1794029 29.5880757,47.6999285 29.5880757,47.1662016 C29.5880757,43.0503463 32.3395068,38.9843445 36.2346758,37.2599962" id="Stroke-9" stroke="#8230DF" stroke-width="1.92" stroke-linecap="round" stroke-linejoin="round"></path>
                <path d="M30.0468923,60.3713964 C30.4330323,58.9359057 30.879369,58.2394215 30.879369,56.8376553 C30.879369,54.947617 30.4785469,53.8801632 30.2216096,52.8420351" id="Stroke-11" stroke="#8230DF" stroke-width="1.92" stroke-linecap="round" stroke-linejoin="round"></path>
                <path d="M45.0602508,44.3185341 C45.6225763,45.152849 46.0087163,46.1777805 46.2186708,47.358138 C46.7942103,50.5707633 47.3770908,53.1792801 46.3845789,59.7746194 C46.261249,60.597204 45.8589586,62.5063039 45.4860325,63.207187" id="Stroke-13" stroke="#8230DF" stroke-width="1.92" stroke-linecap="round" stroke-linejoin="round"></path>
                <path d="M34.6981909,63.1840198 C35.5101127,61.2705209 36.2544967,60.2367917 36.2544967,57.0901491 C36.2544967,50.6297079 34.9213593,51.4288319 34.9213593,47.1663483 C34.9213593,43.8906729 37.3145465,41.7836247 40.2539088,41.7836247 C40.6194938,41.7836247 40.9777378,41.8144167 41.3271725,41.8774668" id="Stroke-15" stroke="#8230DF" stroke-width="1.92" stroke-linecap="round" stroke-linejoin="round"></path>
                <path d="M41.5868994,54.819024 C41.6280093,50.3600585 40.2581666,47.182624 40.253762,47.1664949" id="Stroke-17" stroke="#8230DF" stroke-width="1.92" stroke-linecap="round" stroke-linejoin="round"></path>
                <path d="M40.2534683,63.273463 C40.2534683,63.273463 41.2724081,62.173751 41.623311,59.2646463" id="Stroke-19" stroke="#8230DF" stroke-width="1.92" stroke-linecap="round" stroke-linejoin="round"></path>
                <polyline id="Polygon-2" stroke="#0B9CE5" stroke-width="1.92" stroke-linecap="round" stroke-linejoin="round" transform="translate(39.332870, 47.286577) rotate(-270.000000) translate(-39.332870, -47.286577) " points="39.3328699 8.44491341 73.0467583 27.865745 73.0467583 66.7074081 39.3328699 86.1282397 5.61898141 66.7074081 5.61898141 27.865745"></polyline>
                <ellipse id="Oval-3" fill="#BE207A" style="mix-blend-mode: multiply;" transform="translate(18.261690, 80.579431) scale(-1, 1) translate(-18.261690, -80.579431) " cx="18.2616896" cy="80.5794307" rx="8.42847211" ry="8.32321353"></ellipse>
                <g id="Group" transform="translate(17.484258, 9.017061) scale(-1, 1) rotate(7.000000) translate(-17.484258, -9.017061) translate(5.484258, 1.517061)" fill="#666600" fill-rule="nonzero">
                    <path d="M20.4075697,14.5864933 L22.7398634,14.5864933 C23.0617199,14.5864933 23.3229368,14.3142121 23.3229368,13.9787227 C23.3229368,13.6432334 23.0617199,13.3709522 22.7398634,13.3709522 L20.4075697,13.3709522 C20.0857132,13.3709522 19.8244963,13.6432334 19.8244963,13.9787227 C19.8244963,14.3142121 20.0857132,14.5864933 20.4075697,14.5864933 Z" id="Shape"></path>
                    <path d="M16.9300783,6.68547609 C17.0846308,6.68547609 17.2391833,6.62377349 17.3563051,6.50162754 L19.0648346,4.72106696 C19.3002857,4.47551582 19.3002857,4.07633782 19.0648346,3.83078667 C18.8293835,3.58523553 18.4466246,3.58523553 18.2111736,3.83078667 L16.5026441,5.61134725 C16.267193,5.85689839 16.267193,6.2560764 16.5026441,6.50162754 C16.6221808,6.62377349 16.7767333,6.68547609 16.9300783,6.68547609 Z" id="Shape"></path>
                    <path d="M9.91224815,3.64662332 C10.2341047,3.64662332 10.4953216,3.37434211 10.4953216,3.03885277 L10.4953216,0.607770553 C10.4953216,0.272281208 10.2341047,1.28608235e-12 9.91224815,1.28608235e-12 C9.59039163,1.28608235e-12 9.32917473,0.272281208 9.32917473,0.607770553 L9.32917473,3.03885277 C9.32917473,3.37434211 9.59039163,3.64662332 9.91224815,3.64662332 Z" id="Shape"></path>
                    <path d="M1.88511778,6.50162754 C2.00344704,6.62377349 2.15799953,6.68547609 2.31255202,6.68547609 C2.46710451,6.68547609 2.621657,6.62377349 2.73877881,6.50162754 C2.97422987,6.2560764 2.97422987,5.85689839 2.73877881,5.61134725 L1.03024932,3.83078667 C0.794798259,3.58523553 0.412039356,3.58523553 0.176588295,3.83078667 C-0.0588627651,4.07633782 -0.0588627651,4.47551582 0.176588295,4.72106696 L1.88511778,6.50162754 Z" id="Shape"></path>
                </g>
                <g id="Group" transform="translate(61.188100, 85.552032) scale(-1, 1) rotate(-170.000000) translate(-61.188100, -85.552032) translate(49.188100, 78.052032)" fill="#666600" fill-rule="nonzero">
                    <path d="M20.4075697,14.3964585 L22.7398634,14.3964585 C23.0617199,14.3964585 23.3229368,14.1277247 23.3229368,13.7966061 C23.3229368,13.4654876 23.0617199,13.1967537 22.7398634,13.1967537 L20.4075697,13.1967537 C20.0857132,13.1967537 19.8244963,13.4654876 19.8244963,13.7966061 C19.8244963,14.1277247 20.0857132,14.3964585 20.4075697,14.3964585 Z" id="Shape"></path>
                    <path d="M16.9300783,6.59837683 C17.0846308,6.59837683 17.2391833,6.53747811 17.3563051,6.41692349 L19.0648346,4.65956029 C19.3002857,4.41720822 19.3002857,4.02323076 19.0648346,3.78087869 C18.8293835,3.53852662 18.4466246,3.53852662 18.2111736,3.78087869 L16.5026441,5.53824189 C16.267193,5.78059396 16.267193,6.17457142 16.5026441,6.41692349 C16.6221808,6.53747811 16.7767333,6.59837683 16.9300783,6.59837683 Z" id="Shape"></path>
                    <path d="M9.91224815,3.59911464 C10.2341047,3.59911464 10.4953216,3.33038074 10.4953216,2.9992622 L10.4953216,0.599852439 C10.4953216,0.268733893 10.2341047,3.41060513e-13 9.91224815,3.41060513e-13 C9.59039163,3.41060513e-13 9.32917473,0.268733893 9.32917473,0.599852439 L9.32917473,2.9992622 C9.32917473,3.33038074 9.59039163,3.59911464 9.91224815,3.59911464 Z" id="Shape"></path>
                    <path d="M1.88511778,6.41692349 C2.00344704,6.53747811 2.15799953,6.59837683 2.31255202,6.59837683 C2.46710451,6.59837683 2.621657,6.53747811 2.73877881,6.41692349 C2.97422987,6.17457142 2.97422987,5.78059396 2.73877881,5.53824189 L1.03024932,3.78087869 C0.794798259,3.53852662 0.412039356,3.53852662 0.176588295,3.78087869 C-0.0588627651,4.02323076 -0.0588627651,4.41720822 0.176588295,4.65956029 L1.88511778,6.41692349 Z" id="Shape"></path>
                </g>
                <ellipse id="Oval-7" stroke="#F5C400" stroke-width="1.92" cx="60.4040501" cy="13.9937224" rx="8.42847211" ry="8.32321353"></ellipse>
            </g>
        </g>
    </g>
</svg>